# AST/ASF file generated using VICON BodyLanguage
# -----------------------------------------------
:version 1.10
:name VICON
:units
  mass 1.0
  length 0.45
  angle deg
:documentation
   .ast/.asf automatically generated from VICON data using
   VICON BodyBuilder and BodyLanguage model FoxedUp or BRILLIANT.MOD
:root
   order TX TY TZ RX RY RZ
   axis XYZ
   position 0 0 0  
   orientation 0 0 0 
:bonedata
  begin
     id 1 
     name lhipjoint
     direction 0.660183 -0.676772 0.325788 
     length 2.75133 
     axis 0 0 0  XYZ
  end
  begin
     id 2 
     name lfemur
     direction 0.34202 -0.939693 0  
     length 7.70317  
     axis 0 0 20  XYZ
    dof rx ry rz
    limits (-160.0 20.0)
           (-70.0 70.0)
           (-60.0 70.0)
  end
  begin
     id 3 
     name ltibia
     direction 0.342105 -0.939662 0   
     length 7.18701   
     axis 0 0 20   XYZ
    dof rx
    limits (-10.0 170.0)
  end
  begin
     id 4 
     name lfoot
     direction 0.14163 -0.389126 0.910232   
     length 2.41719   
     axis -90 7.62852e-016 20   XYZ
    dof rx rz
    limits (-45.0 90.0)
           (-70.0 20.0)
  end
  begin
     id 5 
     name ltoes
     direction 1.53533e-011 -4.21926e-011 1   
     length 1.18611   
     axis -90 7.62852e-016 20   XYZ
    dof rx
    limits (-90.0 20.0)
  end
  begin
     id 6 
     name rhipjoint
     direction -0.6658 -0.67229 0.323631   
     length 2.76968  
     axis 0 0 0  XYZ 
  end
  begin
     id 7 
     name rfemur
     direction -0.34202 -0.939693 0   
     length 7.92547   
     axis 0 0 -20   XYZ
    dof rx ry rz
    limits (-160.0 20.0)
           (-70.0 70.0)
           (-70.0 60.0)
  end
  begin
     id 8 
     name rtibia
     direction -0.342022 -0.939692 0   
     length 7.22641   
     axis 0 0 -20   XYZ
    dof rx
    limits (-10.0 170.0)
 end
 begin
     id 9 
     name rfoot
     direction -0.105675 -0.29034 0.951071   
     length 2.48149  
     axis -90 -7.62852e-016 -20   XYZ
    dof rx rz
    limits (-45.0 90.0)
           (-20.0 70.0)
  end
  begin
     id 10 
     name rtoes
     direction -1.5349e-011 -4.21859e-011 1   
     length 1.23343   
     axis -90 -7.62852e-016 -20   XYZ
    dof rx
    limits (-90.0 20.0)
  end
  begin
     id 11 
     name lowerback
     direction 0.0104173 0.993624 -0.112266   
     length 2.00527   
     axis 0 0 0   XYZ
    dof rx ry rz
    limits (-20.0 45.0)
           (-30.0 30.0)
           (-30.0 30.0)
  end
  begin
     id 12 
     name upperback
     direction 0.00733149 0.999856 -0.0152913   
     length 2.01385   
     axis 0 0 0   XYZ
    dof rx ry rz
    limits (-20.0 45.0)
           (-30.0 30.0)
           (-30.0 30.0)
  end
  begin
     id 13 
     name thorax
     direction 0.0026304 0.999318 0.036841   
     length 2.03734   
     axis 0 0 0   XYZ
    dof rx ry rz
    limits (-20.0 45.0)
           (-30.0 30.0)
           (-30.0 30.0)
  end
  begin
     id 14 
     name lowerneck
     direction 0.0293154 0.998757 0.0403082   
     length 1.65303   
     axis 0 0 0   XYZ
    dof rx ry rz
    limits (-20.0 45.0)
           (-30.0 30.0)
           (-30.0 30.0)
  end
  begin
     id 15 
     name upperneck
     direction -0.0376619 0.998184 -0.0470083   
     length 1.60926   
     axis 0 0 0   XYZ
    dof rx ry rz
    limits (-20.0 45.0)
           (-30.0 30.0)
           (-30.0 30.0)
  end
  begin
     id 16
     name head
     direction -0.0170133 0.999635 -0.0209778  
     length 1.73625  
     axis 0 0 0   XYZ
    dof rx ry rz
    limits (-20.0 45.0)
           (-30.0 30.0)
           (-30.0 30.0)
  end
  begin
     id 17 
     name lclavicle
     direction 0.919857 0.39181 -0.0186333  
     length 3.75313  
     axis 0 0 0   XYZ
    dof ry rz
    limits (-20.0 10.0)
           (0.0 20.0)
  end
  begin
     id 18 
     name lhumerus
     direction 1 -4.48988e-011 1.44029e-027   
     length 5.49313   
     axis 180 -30 -90   XYZ
    dof rx ry rz
    limits (-60.0 90.0)
           (-90.0 90.0)
           (-90.0 90.0)
  end
  begin
     id 19
     name lradius
     direction 1 -4.48924e-011 7.46281e-027   
     length 3.29037   
     axis 180 -30 -90   XYZ
    dof rx
    limits (-10.0 170.0)
  end
  begin
     id 20
     name lwrist
     direction 1 -4.48955e-011 2.19879e-026   
     length 1.64519   
     axis -1.34358e-014 90 90   XYZ
    dof ry
    limits (-180.0 0.0)
 end
  begin
     id 21 
     name lhand
     direction 1 -4.48978e-011 4.39747e-026   
     length 0.729656   
     axis -2.80598e-014 90 90   XYZ
    dof rx rz
    limits (-90.0 90.0)
           (-45.0 45.0)
  end
  begin
     id 22 
     name lfingers
     direction 1 -4.49071e-011 8.79411e-026   
     length 0.588268   
     axis -5.61193e-014 90 90   XYZ
    dof rx
    limits (0.0 90.0)
  end
  begin
     id 23
     name lthumb
     direction 0.707107 -6.34817e-011 0.707107   
     length 0.844638   
     axis -90 45 -9.86923e-015   XYZ
    dof rx rz
    limits (-45.0 45.0)
           (-45.0 45.0)
  end
  begin
     id 24 
     name rclavicle
     direction -0.919898 0.388279 0.0550233   
     length 3.7171  
     axis 0 0 0   XYZ 
    dof ry rz
    limits (-10.0 20.0)
           (-20.0 0.0)
  end
  begin
     id 25 
     name rhumerus
     direction -1 -4.48968e-011 9.98372e-028  
     length 5.23684   
     axis 180 30 90   XYZ
    dof rx ry rz
    limits (-90.0 60.0)
           (-90.0 90.0)
           (-90.0 90.0)
  end
  begin
     id 26 
     name rradius
     direction -1 -4.48956e-011 1.01023e-026   
     length 3.38251   
     axis 180 30 90   XYZ
    dof rx
    limits (-10.0 170.0)
  end
  begin
     id 27 
     name rwrist
     direction -1 -4.4892e-011 2.19886e-026   
     length 1.69126   
     axis -1.34358e-014 -90 -90   XYZ
    dof ry
    limits (-180.0 0.0)
  end
  begin
     id 28
     name rhand
     direction -1 -4.49024e-011 4.39727e-026   
     length 0.691454   
     axis -2.80598e-014 -90 -90   XYZ
    dof rx rz
    limits (-90.0 90.0)
           (-45.0 45.0)
  end
  begin
     id 29
     name rfingers
     direction -1 -4.49097e-011 8.79388e-026   
     length 0.557468   
     axis -5.61193e-014 -90 -90   XYZ
    dof rx
    limits (0.0 90.0)
  end
  begin
     id 30
     name rthumb
     direction -0.707107 -6.34938e-011 0.707107   
     length 0.800416   
     axis -90 -45 9.86923e-015   XYZ
    dof rx rz
    limits (-45.0 45.0)
           (-45.0 45.0)
  end
:hierarchy
  begin
    root lhipjoint rhipjoint lowerback
    lhipjoint lfemur
    lfemur ltibia
    ltibia lfoot
    lfoot ltoes
    rhipjoint rfemur
    rfemur rtibia
    rtibia rfoot
    rfoot rtoes
    lowerback upperback
    upperback thorax
    thorax lowerneck lclavicle rclavicle
    lowerneck upperneck
    upperneck head
    lclavicle lhumerus
    lhumerus lradius
    lradius lwrist
    lwrist lhand lthumb
    lhand lfingers
    rclavicle rhumerus
    rhumerus rradius
    rradius rwrist
    rwrist rhand rthumb
    rhand rfingers
  end

#!OML:ASF H:\BabyWalks\Project 1\Capture day 1\Session 1\baby.ASF
:FULLY-SPECIFIED
:DEGREES
72
root -32.514 17.4335 -2.47967 -18.0051 79.2243 -21.6951
lowerback 14.8185 -0.70512 0.865417
upperback 7.15263 -0.398211 2.70813
thorax -0.738769 -0.0754873 2.40059
lowerneck -1.16632 5.14396 0.549566
upperneck -11.5868 6.66574 -5.49205
head -3.31857 3.59521 -2.0582
rclavicle -4.77083e-015 4.27387e-014
rhumerus -45.7981 24.4399 -88.4145
rradius 40.4784
rwrist 1.18477
rhand -9.62493 -15.5071
rfingers 7.12502
rthumb 16.3448 -44.8384
lclavicle -4.77083e-015 4.27387e-014
lhumerus -47.9705 -3.26627 88.8546
lradius 52.1988
lwrist 7.41579
lhand -1.76975 13.1697
lfingers 7.12502
lthumb 23.8942 41.7033
rfemur 1.58809 11.9799 26.4672
rtibia 19.5623
rfoot -22.3774 0.453642
rtoes 3.04337
lfemur -22.4908 -1.64752 -11.2315
ltibia 40.4193
lfoot -23.459 -8.67502
ltoes -7.4893
73
root -32.5181 17.4356 -2.47677 -17.7943 79.2207 -21.4912
lowerback 14.8162 -0.705764 0.871941
upperback 7.15117 -0.398389 2.70805
thorax -0.739129 -0.0754782 2.39682
lowerneck -1.14967 5.13097 0.574867
upperneck -11.5829 6.64719 -5.50437
head -3.31971 3.58531 -2.06679
rclavicle -2.31584e-014 1.19271e-015
rhumerus -45.7824 24.411 -88.3971
rradius 40.4781
rwrist 1.18867
rhand -9.73452 -15.4826
rfingers 7.12502
rthumb 16.2393 -44.8225
lclavicle -2.31584e-014 1.19271e-015
lhumerus -48.0012 -3.33825 88.8987
lradius 52.2333
lwrist 7.44785
lhand -1.77196 13.2166
lfingers 7.12502
lthumb 23.8921 41.7504
rfemur 1.53002 11.9972 26.4395
rtibia 19.6292
rfoot -22.3779 0.439754
rtoes 3.01627
lfemur -22.473 -1.64928 -11.2547
ltibia 40.3439
lfoot -23.3998 -8.66857
ltoes -7.45669
74
root -32.5221 17.4378 -2.47383 -17.5726 79.2258 -21.2771
lowerback 14.8219 -0.709404 0.875381
upperback 7.146 -0.402749 2.70631
thorax -0.747482 -0.0776144 2.39378
lowerneck -1.13931 5.11524 0.595038
upperneck -11.5719 6.62561 -5.50938
head -3.31771 3.57363 -2.07152
rclavicle 1.88845e-015 1.17283e-014
rhumerus -45.7718 24.3732 -88.3766
rradius 40.4809
rwrist 1.20771
rhand -9.78831 -15.4254
rfingers 7.12502
rthumb 16.1875 -44.7695
lclavicle 1.88845e-015 1.17283e-014
lhumerus -48.0386 -3.41798 88.9464
lradius 52.272
lwrist 7.4806
lhand -1.76693 13.2546
lfingers 7.12502
lthumb 23.8969 41.7878
rfemur 1.47072 12.0136 26.4073
rtibia 19.6961
rfoot -22.3739 0.425101
rtoes 3.01609
lfemur -22.4591 -1.6544 -11.2837
ltibia 40.2682
lfoot -23.3296 -8.66289
ltoes -7.39449
75
root -32.5264 17.4401 -2.47104 -17.3794 79.2411 -21.0919
lowerback 14.8209 -0.714969 0.881338
upperback 7.14649 -0.409196 2.7074
thorax -0.746264 -0.0806712 2.39253
lowerneck -1.13215 5.09332 0.611306
upperneck -11.564 6.59587 -5.51233
head -3.31673 3.55807 -2.07475
rclavicle 4.18442e-014 1.59028e-015
rhumerus -45.7524 24.3226 -88.3409
rradius 40.4866
rwrist 1.24004
rhand -9.77261 -15.334
rfingers 7.12502
rthumb 16.2026 -44.6769
lclavicle 4.18442e-014 1.59028e-015
lhumerus -48.0666 -3.50882 89.002
lradius 52.3107
lwrist 7.51223
lhand -1.75096 13.2599
lfingers 7.12502
lthumb 23.9122 41.7911
rfemur 1.41186 12.0218 26.3767
rtibia 19.7626
rfoot -22.3686 0.408616
rtoes 3.01671
lfemur -22.4493 -1.66536 -11.3117
ltibia 40.1929
lfoot -23.259 -8.66263
ltoes -7.34273
76
root -32.5306 17.4424 -2.46842 -17.2041 79.2643 -20.9238
lowerback 14.8256 -0.724473 0.893
upperback 7.14581 -0.419871 2.70717
thorax -0.749194 -0.0856469 2.38736
lowerneck -1.12931 5.06828 0.622681
upperneck -11.5524 6.56258 -5.50771
head -3.31413 3.54054 -2.07427
rclavicle 3.60794e-014 -5.22804e-014
rhumerus -45.7315 24.2623 -88.2999
rradius 40.4896
rwrist 1.29126
rhand -9.67833 -15.206
rfingers 7.12502
rthumb 16.2934 -44.5415
lclavicle 3.60794e-014 -5.22804e-014
lhumerus -48.0962 -3.60548 89.0586
lradius 52.35
lwrist 7.53783
lhand -1.72766 13.2298
lfingers 7.12502
lthumb 23.9346 41.7581
rfemur 1.35385 12.0221 26.3462
rtibia 19.8299
rfoot -22.3623 0.393654
rtoes 3.02459
lfemur -22.4414 -1.68033 -11.3401
ltibia 40.118
lfoot -23.1946 -8.67014
ltoes -7.31965
77
root -32.5348 17.4448 -2.46594 -17.0407 79.2949 -20.766
lowerback 14.8355 -0.736556 0.907515
upperback 7.14423 -0.433344 2.70652
thorax -0.755751 -0.0919084 2.38062
lowerneck -1.12516 5.04082 0.637456
upperneck -11.5396 6.52582 -5.50556
head -3.31135 3.52121 -2.07514
rclavicle 5.76476e-015 3.57812e-014
rhumerus -45.708 24.1941 -88.2537
rradius 40.4843
rwrist 1.36152
rhand -9.50466 -15.0512
rfingers 7.12502
rthumb 16.4606 -44.3729
lclavicle 5.76476e-015 3.57812e-014
lhumerus -48.1269 -3.70509 89.1166
lradius 52.3881
lwrist 7.55607
lhand -1.70231 13.1799
lfingers 7.12502
lthumb 23.9589 41.7049
rfemur 1.29901 12.0156 26.3151
rtibia 19.8963
rfoot -22.3551 0.37724
rtoes 3.02751
lfemur -22.4348 -1.70011 -11.3701
ltibia 40.0449
lfoot -23.1359 -8.68175
ltoes -7.31968
78
root -32.5391 17.4472 -2.46347 -16.9027 79.3316 -20.6345
lowerback 14.8478 -0.750919 0.924786
upperback 7.14205 -0.449264 2.70729
thorax -0.764144 -0.0993181 2.37423
lowerneck -1.12055 5.01142 0.651823
upperneck -11.5273 6.48657 -5.5017
head -3.30895 3.5006 -2.07537
rclavicle -6.36111e-015 7.7526e-015
rhumerus -45.6788 24.1204 -88.2018
rradius 40.4696
rwrist 1.44566
rhand -9.2503 -14.8762
rfingers 7.12502
rthumb 16.7055 -44.1774
lclavicle -6.36111e-015 7.7526e-015
lhumerus -48.1549 -3.80674 89.1753
lradius 52.4243
lwrist 7.56718
lhand -1.67973 13.1472
lfingers 7.12502
lthumb 23.9805 41.6694
rfemur 1.24328 12.004 26.2874
rtibia 19.9632
rfoot -22.3484 0.359052
rtoes 3.03099
lfemur -22.4334 -1.72253 -11.3968
ltibia 39.975
lfoot -23.076 -8.69673
ltoes -7.32198
79
root -32.5434 17.4495 -2.46102 -16.7826 79.3722 -20.5201
lowerback 14.8645 -0.76682 0.945258
upperback 7.13854 -0.4666 2.70823
thorax -0.776284 -0.107343 2.36649
lowerneck -1.11436 4.98217 0.66661
upperneck -11.5136 6.44771 -5.49523
head -3.30641 3.48003 -2.07482
rclavicle -5.02925e-014 1.37161e-014
rhumerus -45.6491 24.0469 -88.1506
rradius 40.446
rwrist 1.5321
rhand -8.91818 -14.6994
rfingers 7.12502
rthumb 17.0252 -43.9733
lclavicle -5.02925e-014 1.37161e-014
lhumerus -48.1827 -3.90846 89.2332
lradius 52.4584
lwrist 7.57113
lhand -1.66091 13.1129
lfingers 7.12502
lthumb 23.9986 41.6328
rfemur 1.18853 11.9877 26.2619
rtibia 20.0315
rfoot -22.3442 0.339802
rtoes 3.02886
lfemur -22.4339 -1.74652 -11.4217
ltibia 39.9088
lfoot -23.0296 -8.72017
ltoes -7.36726
80
root -32.5478 17.4517 -2.45848 -16.6888 79.4163 -20.4346
lowerback 14.8792 -0.783347 0.96829
upperback 7.13509 -0.48438 2.71118
thorax -0.787273 -0.115553 2.35946
lowerneck -1.10095 4.95291 0.683387
upperneck -11.5057 6.4086 -5.49012
head -3.30717 3.45947 -2.07558
rclavicle 6.03311e-014 -2.32578e-014
rhumerus -45.6124 23.9748 -88.1002
rradius 40.404
rwrist 1.61372
rhand -8.52662 -14.527
rfingers 7.12502
rthumb 17.4021 -43.768
lclavicle 6.03311e-014 -2.32578e-014
lhumerus -48.2062 -4.00924 89.2903
lradius 52.489
lwrist 7.56913
lhand -1.64748 13.0886
lfingers 7.12502
lthumb 24.0115 41.6067
rfemur 1.13007 11.9694 26.241
rtibia 20.1023
rfoot -22.3414 0.318476
rtoes 3.0296
lfemur -22.4417 -1.7713 -11.4415
ltibia 39.8475
lfoot -22.9919 -8.75052
ltoes -7.44448
81
root -32.5522 17.4539 -2.45583 -16.5996 79.4619 -20.3541
lowerback 14.8895 -0.799465 0.99033
upperback 7.13431 -0.501812 2.71449
thorax -0.793136 -0.12359 2.35325
lowerneck -1.08648 4.92416 0.699902
upperneck -11.5029 6.37017 -5.48498
head -3.30987 3.43941 -2.07652
rclavicle -1.65985e-014 -9.93923e-016
rhumerus -45.5713 23.9095 -88.0544
rradius 40.3522
rwrist 1.68086
rhand -8.08751 -14.3727
rfingers 7.12502
rthumb 17.8246 -43.5758
lclavicle -1.65985e-014 -9.93923e-016
lhumerus -48.2215 -4.10643 89.3442
lradius 52.5156
lwrist 7.56297
lhand -1.63777 13.0968
lfingers 7.12502
lthumb 24.0208 41.6137
rfemur 1.07081 11.9507 26.2209
rtibia 20.1747
rfoot -22.3399 0.297111
rtoes 3.03557
lfemur -22.453 -1.7943 -11.4608
ltibia 39.7914
lfoot -22.9567 -8.78362
ltoes -7.52755
82
root -32.5565 17.4559 -2.45301 -16.5145 79.5093 -20.2789
lowerback 14.8935 -0.814878 1.00919
upperback 7.13624 -0.518845 2.71922
thorax -0.792793 -0.131504 2.3502
lowerneck -1.07061 4.89763 0.716303
upperneck -11.5019 6.33479 -5.47923
head -3.31341 3.42089 -2.07742
rclavicle 1.49089e-014 -1.49089e-014
rhumerus -45.5326 23.8557 -88.0158
rradius 40.2996
rwrist 1.72406
rhand -7.61956 -14.2501
rfingers 7.12502
rthumb 18.2749 -43.4117
lclavicle 1.49089e-014 -1.49089e-014
lhumerus -48.2288 -4.19848 89.3958
lradius 52.5388
lwrist 7.55465
lhand -1.63019 13.0989
lfingers 7.12502
lthumb 24.028 41.6149
rfemur 1.01019 11.9298 26.2012
rtibia 20.2481
rfoot -22.3381 0.276797
rtoes 3.04238
lfemur -22.4687 -1.81519 -11.4793
ltibia 39.7412
lfoot -22.9243 -8.81773
ltoes -7.6199
83
root -32.5608 17.4577 -2.45018 -16.4616 79.5527 -20.2359
lowerback 14.8958 -0.828831 1.03351
upperback 7.13983 -0.533166 2.72598
thorax -0.789911 -0.137932 2.34574
lowerneck -1.05189 4.8723 0.731456
upperneck -11.5051 6.30098 -5.47315
head -3.31891 3.40333 -2.07829
rclavicle -1.0138e-014 -1.03368e-014
rhumerus -45.5016 23.8097 -87.9843
rradius 40.2511
rwrist 1.74428
rhand -7.14087 -14.163
rfingers 7.12502
rthumb 18.7353 -43.2807
lclavicle -1.0138e-014 -1.03368e-014
lhumerus -48.2305 -4.28249 89.4431
lradius 52.5603
lwrist 7.54345
lhand -1.62257 13.121
lfingers 7.12502
lthumb 24.0354 41.636
rfemur 0.95041 11.9072 26.1881
rtibia 20.3207
rfoot -22.3349 0.260912
rtoes 3.03564
lfemur -22.486 -1.83221 -11.4905
ltibia 39.6966
lfoot -22.8891 -8.8512
ltoes -7.69171
84
root -32.565 17.4593 -2.44716 -16.4264 79.5894 -20.2102
lowerback 14.8941 -0.839725 1.058
upperback 7.14679 -0.543448 2.73482
thorax -0.781457 -0.142331 2.34269
lowerneck -1.03256 4.85153 0.751512
upperneck -11.5087 6.27306 -5.47172
head -3.32418 3.38869 -2.08167
rclavicle 2.68359e-015 -1.11319e-014
rhumerus -45.4778 23.7735 -87.9611
rradius 40.2081
rwrist 1.74699
rhand -6.67522 -14.1127
rfingers 7.12502
rthumb 19.1832 -43.1866
lclavicle 2.68359e-015 -1.11319e-014
lhumerus -48.2255 -4.35722 89.486
lradius 52.5811
lwrist 7.53223
lhand -1.61504 13.1484
lfingers 7.12502
lthumb 24.0426 41.6625
rfemur 0.892628 11.8891 26.1808
rtibia 20.3902
rfoot -22.3279 0.248719
rtoes 3.028
lfemur -22.5039 -1.84355 -11.4955
ltibia 39.6574
lfoot -22.8386 -8.87984
ltoes -7.6945
85
root -32.5691 17.4609 -2.44409 -16.4051 79.6206 -20.1963
lowerback 14.8895 -0.847453 1.08234
upperback 7.15717 -0.549543 2.74573
thorax -0.767964 -0.144619 2.34121
lowerneck -1.01414 4.83281 0.768859
upperneck -11.5131 6.248 -5.46921
head -3.32958 3.37557 -2.08427
rclavicle -2.52457e-014 7.4743e-014
rhumerus -45.4631 23.7439 -87.9434
rradius 40.1727
rwrist 1.74002
rhand -6.23795 -14.0936
rfingers 7.12502
rthumb 19.6036 -43.1252
lclavicle -2.52457e-014 7.4743e-014
lhumerus -48.2127 -4.42443 89.5261
lradius 52.5992
lwrist 7.52724
lhand -1.61038 13.1773
lfingers 7.12502
lthumb 24.047 41.6908
rfemur 0.839976 11.8721 26.1773
rtibia 20.4542
rfoot -22.3197 0.237971
rtoes 3.00008
lfemur -22.5193 -1.8521 -11.4964
ltibia 39.6223
lfoot -22.7765 -8.9037
ltoes -7.64568
86
root -32.5732 17.4623 -2.44107 -16.4115 79.6472 -20.2083
lowerback 14.8857 -0.853551 1.11145
upperback 7.16923 -0.552719 2.75823
thorax -0.753269 -0.145308 2.33827
lowerneck -0.996868 4.81711 0.786766
upperneck -11.5148 6.22704 -5.46719
head -3.33366 3.36443 -2.08706
rclavicle 1.71949e-014 -5.56597e-015
rhumerus -45.4573 23.7202 -87.9322
rradius 40.1427
rwrist 1.7284
rhand -5.84468 -14.0982
rfingers 7.12502
rthumb 19.9817 -43.0908
lclavicle 1.71949e-014 -5.56597e-015
lhumerus -48.1939 -4.48409 89.5619
lradius 52.6157
lwrist 7.5298
lhand -1.6096 13.2173
lfingers 7.12502
lthumb 24.0478 41.7306
rfemur 0.791637 11.8532 26.1796
rtibia 20.5134
rfoot -22.309 0.232457
rtoes 2.96416
lfemur -22.5319 -1.85849 -11.4908
ltibia 39.5896
lfoot -22.7155 -8.9229
ltoes -7.598
